<svg width="541" height="391" viewBox="0 0 541 391" fill="none" xmlns="http://www.w3.org/2000/svg">
<g clip-path="url(#clip0_1_757)">
<rect x="0.522827" y="0.10791" width="540.298" height="390.21" rx="5" fill="white"/>
<g clip-path="url(#clip1_1_757)">
<path d="M656.159 -45H5.93081V390.42H656.159V-45Z" fill="white"/>
<path opacity="0.3" d="M691.574 301.815C690.638 295.368 692.342 288.824 696.267 283.638C706.109 270.643 710.906 255.231 708.626 239.541C703.339 203.166 662.097 179.096 616.508 185.78C585.917 190.264 561.15 207.457 549.758 229.274C545.269 237.871 536.239 243.101 526.609 242.26C523.042 241.949 519.349 242.045 515.599 242.595C506.314 243.956 498.136 247.884 491.907 253.4C485.981 258.647 477.871 260.559 470.198 258.678C459.729 256.113 447.381 255.519 434.435 257.417C419.901 259.549 406.987 264.471 397.216 270.963C390.437 275.468 381.893 276.489 374.417 273.277C368.777 270.856 362.464 269.916 356.001 270.863C347.372 272.128 339.957 276.541 334.677 282.817C330.59 287.675 324.952 291.032 318.66 291.75C318.354 291.785 318.045 291.831 317.739 291.87C317.05 291.258 316.382 290.616 315.741 289.941C310.235 284.139 302.834 280.177 294.385 279.169C288.583 278.476 282.937 279.258 277.798 281.222C268.493 284.777 258.081 283.664 249.404 278.759C239.621 273.227 227.314 269.191 213.692 267.567C201.717 266.141 190.292 266.766 180.365 269.028C170.77 271.216 160.596 269.295 152.679 263.428C146.462 258.821 138.744 255.654 130.166 254.63C127.556 254.319 124.977 254.221 122.452 254.319C110.44 254.787 99.2494 248.67 92.7731 238.498C79.8228 218.16 55.0664 202.785 25.2708 199.236C-21.5998 193.652 -63.1775 219.442 -67.5947 256.84C-69.3959 272.086 -64.7294 286.899 -55.4051 299.483C-50.2488 306.443 -47.8256 315.065 -48.8422 323.679L-54.8806 374.82C-57.048 393.183 -43.9871 409.836 -25.7049 412.013L317.008 452.845C329.285 454.308 340.785 448.865 347.678 439.577L680.159 390.834C693.33 388.903 702.448 376.614 700.526 363.383L691.574 301.815Z" fill="#DEE5F8"/>
<path opacity="0.8" d="M739.81 306.023C738.15 278.246 708.584 257.428 673.769 259.527C644.262 261.306 620.463 278.977 614.902 301.236C609.154 297.454 601.852 295.395 594.023 295.867C583.099 296.525 573.77 301.948 568.577 309.633C559.648 304.042 546.415 300.929 531.857 301.806C515.551 302.788 501.498 308.544 493.587 316.452C488.363 310.16 480.454 306.365 471.834 306.886C462.573 307.443 454.72 312.851 450.437 320.571C443.17 319.72 434.977 320.325 426.639 322.641C403.445 329.085 387.938 346.269 392.001 361.024C394.748 370.995 405.732 377.297 419.723 378.351L423.137 435.509L726.867 417.204L722.469 343.565C733.937 333.681 740.664 320.329 739.81 306.023Z" fill="#DEE5F8"/>
<path opacity="0.8" d="M-77.7904 333.816C-77.5238 305.991 -49.0373 283.704 -14.1612 284.041C15.3981 284.326 40.0526 300.772 46.7217 322.722C52.2725 318.655 59.464 316.229 67.3036 316.304C78.2448 316.408 87.8335 321.352 93.4081 328.765C102.045 322.73 115.106 318.953 129.691 319.092C146.025 319.249 160.349 324.287 168.646 331.785C173.549 325.236 181.256 321.047 189.891 321.13C199.17 321.219 207.282 326.222 211.947 333.718C219.162 332.501 227.375 332.691 235.819 334.582C259.305 339.847 275.654 356.225 272.336 371.166C270.092 381.264 259.437 388.113 245.516 389.872L244.97 447.13L-59.2936 444.197L-58.5891 370.431C-70.5403 361.143 -77.9269 348.146 -77.7904 333.816Z" fill="#DEE5F8"/>
<path d="M548.654 128.211C548.654 129.03 548.498 129.822 548.212 130.571H523.009C522.992 130.554 522.983 130.536 522.966 130.519C522.966 130.536 522.957 130.554 522.949 130.571C522.949 130.571 522.272 130.571 521.05 130.589C508.574 130.658 438.835 131.05 438.835 130.432C438.835 123.291 444.271 117.509 450.973 117.509C452.542 117.509 454.042 117.822 455.412 118.397C456.686 117.3 458.316 116.655 460.076 116.655C462.625 116.655 464.888 118.014 466.24 120.095C466.257 120.06 466.275 120.017 466.292 119.982C467.592 117.204 470.124 114.861 473.401 113.329C476.028 112.092 479.123 111.378 482.452 111.378C483.415 111.378 484.36 111.439 485.279 111.552C488.807 104.638 495.7 99.935 503.624 99.935C513.759 99.935 522.22 107.633 524.102 117.839C525.237 117.091 526.581 116.655 528.02 116.655C530.907 116.655 533.413 118.388 534.653 120.94C535.901 120.487 537.28 120.234 538.736 120.234C542.655 120.234 546.036 122.063 547.649 124.71C548.29 125.764 548.654 126.957 548.654 128.211Z" fill="#DEE5F8"/>
<path opacity="0.4" d="M547.649 124.71C544.432 123.848 540.99 123.874 537.626 123.918C530.119 124.005 522.619 124.092 515.111 124.179C506.121 124.284 498.11 119.12 488.92 119.956C484.516 120.365 480.034 122.168 475.803 122.42C472.448 122.62 468.364 122.019 466.292 119.982C467.593 117.204 470.124 114.861 473.401 113.329C476.028 112.092 479.123 111.378 482.452 111.378C483.415 111.378 484.36 111.439 485.279 111.552C488.807 104.638 495.7 99.935 503.624 99.935C513.759 99.935 522.22 107.633 524.102 117.839C525.237 117.091 526.581 116.655 528.02 116.655C530.907 116.655 533.413 118.388 534.653 120.94C535.901 120.487 537.28 120.234 538.736 120.234C542.655 120.234 546.036 122.063 547.649 124.71Z" fill="white"/>
<path d="M222.257 176.542C222.257 177.082 222.153 177.605 221.963 178.092H205.421C205.403 178.084 205.395 178.075 205.386 178.058C205.386 178.075 205.377 178.084 205.377 178.092C205.377 178.092 150.151 178.449 150.151 177.997C150.151 173.311 153.715 169.515 158.119 169.515C159.151 169.515 160.13 169.724 161.032 170.098C161.873 169.384 162.939 168.957 164.092 168.957C165.765 168.957 167.248 169.846 168.141 171.213C169.337 168.565 172.224 166.519 175.831 165.796C176.767 165.596 177.764 165.491 178.787 165.491C179.42 165.491 180.036 165.526 180.643 165.605C182.958 161.067 187.483 157.976 192.685 157.976C199.343 157.976 204.892 163.036 206.132 169.732C206.877 169.236 207.762 168.957 208.707 168.957C210.597 168.957 212.244 170.098 213.059 171.77C213.874 171.474 214.784 171.3 215.746 171.3C219.336 171.3 222.257 173.651 222.257 176.542Z" fill="#DEE5F8"/>
<path opacity="0.4" d="M222.257 176.542C222.257 177.082 222.153 177.605 221.963 178.092H212.374C211.784 177.169 211.368 176.124 210.649 175.297C207.371 171.535 200.548 174.548 196.595 171.518C195.875 170.969 195.295 170.246 194.549 169.741C192.251 168.208 189.2 169.166 186.538 169.898C183.816 170.647 180.747 171.056 178.302 169.637C177.01 168.888 175.996 167.338 175.831 165.796C176.767 165.596 177.764 165.491 178.787 165.491C179.42 165.491 180.036 165.526 180.643 165.605C182.958 161.067 187.483 157.976 192.685 157.976C199.343 157.976 204.892 163.036 206.132 169.732C206.877 169.236 207.762 168.957 208.707 168.957C210.597 168.957 212.244 170.098 213.059 171.77C213.874 171.474 214.784 171.3 215.746 171.3C219.336 171.3 222.257 173.651 222.257 176.542Z" fill="white"/>
<path d="M274.206 54.816C274.206 55.4779 192.676 54.9466 192.676 54.9466C192.668 54.9292 192.668 54.9205 192.668 54.9031C192.65 54.9205 192.633 54.9292 192.616 54.9466H168.193C167.916 54.2238 167.768 53.4575 167.768 52.665C167.768 48.3892 172.068 44.932 177.374 44.932C178.787 44.932 180.131 45.1758 181.336 45.6112C182.541 43.1467 184.969 41.466 187.769 41.466C189.156 41.466 190.457 41.884 191.558 42.6068C193.387 32.7141 201.589 25.2597 211.412 25.2597C211.481 25.2597 211.55 25.2597 211.62 25.2684C219.214 25.3381 225.803 29.8751 229.193 36.5196C230.077 36.4064 230.996 36.3455 231.933 36.3455C239.215 36.3455 245.414 39.8724 247.642 44.7926C248.96 42.781 251.145 41.466 253.616 41.466C255.324 41.466 256.901 42.093 258.141 43.1555C259.468 42.5981 260.924 42.2933 262.441 42.2933C267.149 42.2933 271.206 45.2368 273.088 49.4865C273.807 51.0975 274.206 52.9089 274.206 54.816Z" fill="#DEE5F8"/>
<path opacity="0.4" d="M273.088 49.4867C269.42 50.7232 265.294 50.88 261.366 50.9671C252.202 51.1674 242.458 51.2196 234.664 46.3865C231.959 44.7144 229.575 42.4938 226.662 41.2311C221.789 39.1149 215.53 39.681 211.94 35.7622C209.617 33.2281 209.201 29.1177 210.978 26.1655C211.169 25.852 211.377 25.5472 211.62 25.2686C219.214 25.3382 225.803 29.8753 229.193 36.5198C230.077 36.4066 230.996 36.3457 231.933 36.3457C239.215 36.3457 245.414 39.8726 247.642 44.7928C248.96 42.7812 251.145 41.4662 253.616 41.4662C255.324 41.4662 256.901 42.0932 258.141 43.1556C259.468 42.5983 260.924 42.2935 262.441 42.2935C267.149 42.2935 271.206 45.2369 273.088 49.4867Z" fill="white"/>
<path d="M565.745 441.765L283.307 443.233L218.6 443.565L247.298 385.912L276.893 359.787L317.251 347.176L335.931 321.656H420.834L454.099 349.501L503.864 365.716L532.939 393.12L533.629 394.146L564.865 440.468L565.745 441.765Z" fill="#1F3C88"/>
<path opacity="0.1" d="M564.865 440.468L543.252 438.161L492.43 404.532L428.906 394.92L409.175 367.445L406.333 347.473L380.539 340.931L370.558 321.656H420.834L454.099 349.501L503.864 365.716L532.939 393.119L533.629 394.146L564.865 440.468Z" fill="#DEE5F8"/>
<path d="M337.131 364.293L295.278 388.914L283.307 443.233L218.6 443.565L247.298 385.912L276.893 359.787L317.251 347.176L335.931 321.656L337.131 364.293Z" fill="#102048"/>
<path d="M404.375 312.107L404.454 305.097L394.344 305.815L394.052 311.609C397.275 312.278 400.939 312.451 404.375 312.107Z" fill="#F9B384"/>
<path d="M415.319 321.615C412.578 317.105 408.831 315.601 404.356 315.032L404.377 312.107C400.941 312.451 397.275 312.28 394.054 311.609L393.551 321.617H415.319V321.615Z" fill="#102048"/>
<path d="M354.195 312.789L353.27 314.912C348.795 315.481 344.791 317.902 341.115 321.615H362.328L364.585 312.816C360.962 313.434 357.509 313.389 354.195 312.789Z" fill="#102048"/>
<path d="M364.583 312.815L366.378 305.815L357.44 305.336L354.193 312.789C357.509 313.389 360.962 313.434 364.583 312.815Z" fill="#F9B384"/>
<path d="M409.042 203.229C414.365 238.022 412.856 272.657 405.468 307.61H392.757C394.275 284.923 395.433 257.955 391.883 240.097L367.631 307.909H353.747L376.627 211.369L384.493 195.887L402.925 193.652L409.042 203.229Z" fill="#102048"/>
<path d="M425.964 129.012L429.379 118.718L438.628 120.887C439.324 124.335 435.169 129.564 432.082 133.48L425.964 129.012Z" fill="#F9B384"/>
<path d="M394.78 165.756L384.13 165.882L383.073 151.872L382.949 150.195L393.646 150.099L394.026 155.413L394.78 165.756Z" fill="#F9B384"/>
<path d="M393.968 154.449C390.482 156.947 385.925 155.391 383.073 151.87L382.949 150.193L393.646 150.097L393.968 154.449Z" fill="#102048"/>
<path d="M391.481 153.276C386.076 154.517 380.043 151.036 377.662 146.411L377.34 138.11L380.365 133.802L393.233 134.914C393.173 134.93 393.18 135.11 393.233 135.418C393.382 136.223 393.876 137.937 394.333 140.005C395.456 145.035 396.354 152.156 391.481 153.276Z" fill="#F9B384"/>
<path d="M382.427 160.455C382.427 160.455 390.371 166.839 397.284 157.743L410.394 201.474C402.367 207.17 392.22 209.138 380.045 207.538L382.427 160.455Z" fill="white"/>
<g opacity="0.3">
<path d="M384.13 165.882C385.23 166.28 386.355 166.523 387.478 166.647C388.601 166.761 389.731 166.735 390.822 166.511C391.911 166.297 392.989 165.953 393.977 165.404C394.498 165.175 394.949 164.825 395.445 164.532C395.931 164.224 396.356 163.833 396.85 163.504C396.485 163.959 396.105 164.415 395.69 164.836C395.237 165.214 394.814 165.648 394.29 165.944C393.307 166.637 392.145 167.055 390.968 167.299C388.593 167.754 386.059 167.222 384.13 165.882Z" fill="#1F3C88"/>
</g>
<path d="M425.607 127.096C418.418 139.289 411.408 150.001 405.071 155.107C404.13 155.865 402.932 156.203 401.727 156.141C399.345 156.017 396.884 156.31 394.144 156.962C394.719 178.839 396.785 199.103 404.194 211.527C408.657 210.234 414.071 208.156 417.063 205.621C414.625 197.308 411.741 185.388 409.595 174.976L433.349 132.362L425.607 127.096Z" fill="#1F3C88"/>
<path d="M394.333 140.005C386.153 144.682 379.354 136.161 379.354 136.161L393.233 135.418C393.382 136.223 393.876 137.937 394.333 140.005Z" fill="#E28B6D"/>
<path d="M379.487 144.813C380.49 143.511 380.948 141.321 380.043 136.913C383.022 140.298 387.452 141.089 393.946 138.189C393.946 138.189 398.169 136.529 397.204 132.204C396.33 128.294 393.072 126.218 390.53 129.41C384.762 127.719 379.09 127.416 376.547 132.683C376.547 132.683 368.444 136.913 375.355 143.776L379.487 144.813Z" fill="#102048"/>
<path d="M362.01 214.502C361.772 214.835 360.898 221.585 360.898 221.585C360.898 221.585 357.005 225.251 359.627 227.501C362.249 229.751 365.427 229.666 366.937 228.001C367.463 226.371 367.504 224.465 366.858 222.168L368.369 214.669L362.01 214.502Z" fill="#F9B384"/>
<path d="M444.714 126.025L431.466 134.093L430.873 129.415L440.859 123.333L444.714 126.025Z" fill="#6F3428"/>
<path d="M437.565 125.342L434.167 127.41L426.103 115.896L431.131 112.834L437.565 125.342Z" fill="#BB9132"/>
<path d="M431.812 112.428L425.431 116.313C424.003 117.183 422.154 116.869 421.089 115.576L410.411 102.606L426.658 92.7123L433.169 108.221C433.818 109.768 433.24 111.557 431.812 112.428Z" fill="#FBC343"/>
<path d="M431.028 104.245L430.149 103.877C432.6 97.9481 432.173 93.1302 430.371 92.0681C429.434 91.5155 428.137 92.1678 426.81 93.8558L426.061 93.2618C428.41 90.2729 430.195 90.8538 430.854 91.241C433.049 92.5381 433.714 97.7545 431.028 104.245Z" fill="#FBC343"/>
<path d="M418.315 111.998C411.344 111.387 407.046 108.381 406.92 105.828C406.883 105.061 407.195 103.204 410.92 102.495L411.097 103.435C408.994 103.836 407.819 104.691 407.873 105.779C407.978 107.875 412.031 110.482 418.4 111.043L418.315 111.998Z" fill="#FBC343"/>
<path opacity="0.6" d="M424.235 101.111C423.675 100.138 423.703 99.0699 424.298 98.724C424.894 98.38 425.829 98.8895 426.389 99.8613C426.948 100.835 426.92 101.903 426.325 102.249C425.73 102.595 424.794 102.085 424.235 101.111Z" fill="white"/>
<path d="M438.622 120.644C438.854 122.304 437.81 123.785 435.607 123.785C434.23 123.785 432.302 121.889 431.896 119.637C431.561 117.78 432.273 116.563 433.577 116.022C434.919 115.467 438.184 117.514 438.622 120.644Z" fill="#F9B384"/>
<path d="M396.476 90.4628L396.027 91.8971L407.627 95.5683L408.077 94.1339L396.476 90.4628Z" fill="#FBC343"/>
<path d="M421.311 75.1958L419.196 87.225L420.671 87.4866L422.785 75.4574L421.311 75.1958Z" fill="#FBC343"/>
<path d="M406.705 78.3842L405.444 79.1949L412 89.4822L413.26 88.6715L406.705 78.3842Z" fill="#FBC343"/>
<path d="M375.754 187.748L373.847 216.636C384.493 216.157 391.642 212.646 391.642 212.646C392.566 195.404 390.362 176.11 383.569 158.76C366.312 165.202 361.446 186.543 358.886 218.255L368.994 219.432L375.754 187.748Z" fill="#1F3C88"/>
<path d="M379.646 147.685C376.399 148.849 374.324 148.586 374.151 145.469C374.052 143.681 375.886 142.256 377.503 143.012C378.205 143.339 378.86 143.961 379.485 144.813L379.646 147.685Z" fill="#F9B384"/>
<path d="M407.437 165.12C407.865 166.49 408.24 167.874 408.601 169.261C408.971 170.645 409.299 172.04 409.624 173.434C409.944 174.831 410.25 176.23 410.521 177.638C410.79 179.046 411.054 180.454 411.251 181.878L410.888 181.961C410.448 180.593 410.075 179.209 409.711 177.824C409.346 176.438 409.016 175.044 408.7 173.647C408.389 172.248 408.081 170.85 407.817 169.442C407.542 168.036 407.28 166.626 407.074 165.203L407.437 165.12Z" fill="#102048"/>
<path d="M376.257 178.019C376.305 179.409 376.296 180.794 376.274 182.179C376.262 183.565 376.204 184.948 376.146 186.332C376.083 187.715 376.004 189.097 375.89 190.479C375.774 191.86 375.654 193.24 375.461 194.618L375.089 194.599C375.029 193.21 375.04 191.825 375.057 190.439C375.076 189.054 375.13 187.67 375.198 186.287C375.272 184.903 375.347 183.522 375.469 182.14C375.579 180.758 375.703 179.379 375.884 178.001L376.257 178.019Z" fill="#102048"/>
<path d="M389.561 246.099C389.989 244.518 390.47 242.956 390.966 241.4C391.451 239.838 391.997 238.3 392.508 236.747C393.049 235.206 393.601 233.668 394.17 232.138C394.754 230.612 395.342 229.087 395.997 227.585L396.348 227.709C395.931 229.294 395.446 230.854 394.956 232.414C394.453 233.969 393.932 235.518 393.401 237.061C392.841 238.595 392.315 240.142 391.726 241.667C391.148 243.195 390.556 244.72 389.913 246.223L389.561 246.099Z" fill="#708CD5"/>
<path d="M377.701 145.955C377.534 145.72 377.379 145.479 377.214 145.256C377.046 145.038 376.891 144.812 376.7 144.66C376.515 144.493 376.346 144.414 376.171 144.461C375.974 144.485 375.778 144.697 375.559 144.874L375.375 144.758C375.497 144.479 375.639 144.168 376.01 144C376.393 143.825 376.837 144.021 377.065 144.243C377.54 144.716 377.794 145.274 377.905 145.876L377.701 145.955Z" fill="#102048"/>
<path d="M431.765 121.139C432.113 119.819 431.934 118.626 431.367 118.475C430.8 118.325 429.926 118.941 429.578 120.263C429.23 121.582 428.831 123.485 429.727 123.91C431.312 124.663 431.417 122.46 431.765 121.139Z" fill="#F9B384"/>
</g>
</g>
<defs>
<clipPath id="clip0_1_757">
<rect width="541" height="391" fill="white"/>
</clipPath>
<clipPath id="clip1_1_757">
<rect width="682.159" height="435.42" fill="white" transform="translate(-26 -45)"/>
</clipPath>
</defs>
</svg>
