<svg width="614" height="236" viewBox="0 0 614 236" fill="none" xmlns="http://www.w3.org/2000/svg">
<path d="M3.64045 3.72727V11H2.5396V4.82812H2.49698L0.756925 5.96449V4.91335L2.57156 3.72727H3.64045ZM9.13974 11.1207C8.57866 11.1184 8.09925 10.9704 7.70153 10.6768C7.3038 10.3833 6.99959 9.95597 6.78888 9.39489C6.57818 8.83381 6.47283 8.15791 6.47283 7.36719C6.47283 6.57884 6.57818 5.9053 6.78888 5.34659C7.00195 4.78788 7.30735 4.36174 7.70508 4.06818C8.10517 3.77462 8.58339 3.62784 9.13974 3.62784C9.69608 3.62784 10.1731 3.7758 10.5708 4.07173C10.9686 4.36529 11.2728 4.79143 11.4835 5.35014C11.6966 5.90649 11.8031 6.57884 11.8031 7.36719C11.8031 8.16027 11.6977 8.83736 11.487 9.39844C11.2763 9.95715 10.9721 10.3845 10.5744 10.6804C10.1767 10.974 9.69845 11.1207 9.13974 11.1207ZM9.13974 10.1726C9.63216 10.1726 10.0169 9.93229 10.2939 9.4517C10.5732 8.97112 10.7129 8.27628 10.7129 7.36719C10.7129 6.76349 10.649 6.25331 10.5211 5.83665C10.3957 5.41761 10.2145 5.10038 9.97781 4.88494C9.74343 4.66714 9.46407 4.55824 9.13974 4.55824C8.64968 4.55824 8.26497 4.79972 7.98562 5.28267C7.70626 5.76562 7.5654 6.46046 7.56303 7.36719C7.56303 7.97325 7.62577 8.4858 7.75124 8.90483C7.87908 9.3215 8.06019 9.63755 8.29457 9.85298C8.52894 10.0661 8.81067 10.1726 9.13974 10.1726ZM16.5948 11.1207C16.0337 11.1184 15.5543 10.9704 15.1566 10.6768C14.7589 10.3833 14.4547 9.95597 14.244 9.39489C14.0333 8.83381 13.9279 8.15791 13.9279 7.36719C13.9279 6.57884 14.0333 5.9053 14.244 5.34659C14.457 4.78788 14.7624 4.36174 15.1602 4.06818C15.5603 3.77462 16.0385 3.62784 16.5948 3.62784C17.1512 3.62784 17.6282 3.7758 18.0259 4.07173C18.4237 4.36529 18.7279 4.79143 18.9386 5.35014C19.1516 5.90649 19.2582 6.57884 19.2582 7.36719C19.2582 8.16027 19.1528 8.83736 18.9421 9.39844C18.7314 9.95715 18.4272 10.3845 18.0295 10.6804C17.6317 10.974 17.1535 11.1207 16.5948 11.1207ZM16.5948 10.1726C17.0872 10.1726 17.4719 9.93229 17.7489 9.4517C18.0283 8.97112 18.168 8.27628 18.168 7.36719C18.168 6.76349 18.104 6.25331 17.9762 5.83665C17.8507 5.41761 17.6696 5.10038 17.4329 4.88494C17.1985 4.66714 16.9192 4.55824 16.5948 4.55824C16.1048 4.55824 15.7201 4.79972 15.4407 5.28267C15.1613 5.76562 15.0205 6.46046 15.0181 7.36719C15.0181 7.97325 15.0808 8.4858 15.2063 8.90483C15.3342 9.3215 15.5153 9.63755 15.7496 9.85298C15.984 10.0661 16.2657 10.1726 16.5948 10.1726Z" fill="#949494"/>
<path d="M37 7L25 7" stroke="#4A5568"/>
<path d="M9.21165 24.1834C9.53598 24.1858 9.85559 24.2449 10.1705 24.3609C10.4853 24.4769 10.7694 24.6663 11.0227 24.9291C11.2784 25.1919 11.482 25.547 11.6335 25.9945C11.7874 26.4395 11.8655 26.9935 11.8679 27.6564C11.8679 28.2932 11.804 28.8602 11.6761 29.3574C11.5483 29.8522 11.3648 30.27 11.1257 30.6109C10.889 30.9518 10.6013 31.2111 10.2628 31.3886C9.92424 31.5662 9.54309 31.655 9.11932 31.655C8.68608 31.655 8.30137 31.5697 7.9652 31.3993C7.62902 31.2288 7.35559 30.9933 7.14489 30.6926C6.93419 30.3896 6.80279 30.0416 6.75071 29.6486H7.83381C7.90483 29.9611 8.04924 30.2144 8.26705 30.4085C8.48722 30.6003 8.77131 30.6962 9.11932 30.6962C9.65199 30.6962 10.0675 30.4642 10.3658 30.0001C10.6641 29.5338 10.8144 28.8827 10.8168 28.047H10.7599C10.6368 28.2506 10.483 28.4258 10.2983 28.5726C10.116 28.7194 9.91122 28.833 9.68395 28.9135C9.45668 28.994 9.21402 29.0342 8.95597 29.0342C8.53693 29.0342 8.15578 28.9313 7.8125 28.7253C7.46922 28.5193 7.19579 28.2364 6.99219 27.8766C6.78859 27.5167 6.68679 27.106 6.68679 26.6443C6.68679 26.185 6.79096 25.7684 6.99929 25.3943C7.20999 25.0203 7.50355 24.7243 7.87997 24.5065C8.25876 24.2864 8.70265 24.1786 9.21165 24.1834ZM9.2152 25.1067C8.93821 25.1067 8.68845 25.1753 8.46591 25.3126C8.24574 25.4476 8.07173 25.6311 7.94389 25.8631C7.81605 26.0927 7.75213 26.3484 7.75213 26.6301C7.75213 26.9118 7.81368 27.1675 7.93679 27.3972C8.06226 27.6244 8.23272 27.8055 8.44815 27.9405C8.66596 28.0731 8.91454 28.1393 9.19389 28.1393C9.40223 28.1393 9.59635 28.0991 9.77628 28.0186C9.9562 27.9381 10.1136 27.8268 10.2486 27.6848C10.3835 27.5404 10.4889 27.377 10.5646 27.1947C10.6404 27.0125 10.6783 26.8207 10.6783 26.6195C10.6783 26.3519 10.6143 26.1034 10.4865 25.8737C10.361 25.6441 10.1882 25.4594 9.96804 25.3197C9.74787 25.1777 9.49692 25.1067 9.2152 25.1067ZM16.6827 31.6763C16.1216 31.6739 15.6422 31.5259 15.2445 31.2324C14.8468 30.9388 14.5426 30.5115 14.3319 29.9504C14.1212 29.3893 14.0158 28.7134 14.0158 27.9227C14.0158 27.1344 14.1212 26.4608 14.3319 25.9021C14.5449 25.3434 14.8503 24.9173 15.248 24.6237C15.6481 24.3302 16.1264 24.1834 16.6827 24.1834C17.2391 24.1834 17.7161 24.3313 18.1138 24.6273C18.5115 24.9208 18.8158 25.347 19.0265 25.9057C19.2395 26.462 19.3461 27.1344 19.3461 27.9227C19.3461 28.7158 19.2407 29.3929 19.03 29.954C18.8193 30.5127 18.5151 30.94 18.1174 31.2359C17.7196 31.5295 17.2414 31.6763 16.6827 31.6763ZM16.6827 30.7281C17.1751 30.7281 17.5598 30.4878 17.8368 30.0072C18.1162 29.5267 18.2559 28.8318 18.2559 27.9227C18.2559 27.319 18.1919 26.8089 18.0641 26.3922C17.9386 25.9732 17.7575 25.6559 17.5208 25.4405C17.2864 25.2227 17.007 25.1138 16.6827 25.1138C16.1926 25.1138 15.8079 25.3553 15.5286 25.8382C15.2492 26.3212 15.1084 27.016 15.106 27.9227C15.106 28.5288 15.1687 29.0413 15.2942 29.4604C15.4221 29.877 15.6032 30.1931 15.8375 30.4085C16.0719 30.6216 16.3536 30.7281 16.6827 30.7281Z" fill="#949494"/>
<path d="M37 27.5555H25" stroke="#4A5568"/>
<path d="M9.27024 52.2105C8.76125 52.2105 8.31143 52.1229 7.92081 51.9477C7.53255 51.7725 7.22834 51.5311 7.00817 51.2233C6.788 50.9155 6.6791 50.5652 6.68146 50.1722C6.6791 49.8644 6.74183 49.5815 6.86967 49.3234C6.99988 49.063 7.17625 48.8464 7.39879 48.6736C7.62133 48.4984 7.86991 48.3871 8.14453 48.3398V48.2972C7.78232 48.2096 7.49231 48.0154 7.2745 47.7148C7.0567 47.4141 6.94898 47.0685 6.95135 46.6778C6.94898 46.3062 7.04723 45.9747 7.24609 45.6835C7.44732 45.39 7.72313 45.1591 8.07351 44.9911C8.42389 44.823 8.8228 44.7389 9.27024 44.7389C9.71295 44.7389 10.1083 44.8242 10.4563 44.9946C10.8067 45.1627 11.0825 45.3935 11.2837 45.6871C11.485 45.9783 11.5868 46.3085 11.5891 46.6778C11.5868 47.0685 11.4755 47.4141 11.2553 47.7148C11.0352 48.0154 10.7487 48.2096 10.396 48.2972V48.3398C10.6682 48.3871 10.9132 48.4984 11.131 48.6736C11.3512 48.8464 11.5264 49.063 11.6566 49.3234C11.7892 49.5815 11.8567 49.8644 11.859 50.1722C11.8567 50.5652 11.7454 50.9155 11.5252 51.2233C11.305 51.5311 10.9996 51.7725 10.609 51.9477C10.2208 52.1229 9.7745 52.2105 9.27024 52.2105ZM9.27024 51.3121C9.5709 51.3121 9.83132 51.2624 10.0515 51.1629C10.2717 51.0611 10.4421 50.9203 10.5629 50.7403C10.6836 50.5581 10.7451 50.345 10.7475 50.1011C10.7451 49.8478 10.6789 49.6241 10.5487 49.43C10.4208 49.2358 10.2468 49.0831 10.0266 48.9719C9.80646 48.8606 9.55433 48.805 9.27024 48.805C8.98378 48.805 8.72929 48.8606 8.50675 48.9719C8.28421 49.0831 8.10902 49.2358 7.98118 49.43C7.85334 49.6241 7.7906 49.8478 7.79297 50.1011C7.7906 50.345 7.8486 50.5581 7.96697 50.7403C8.08771 50.9203 8.25935 51.0611 8.48189 51.1629C8.70443 51.2624 8.96721 51.3121 9.27024 51.3121ZM9.27024 47.9278C9.51172 47.9278 9.72597 47.8793 9.913 47.7822C10.1 47.6852 10.2468 47.5502 10.3533 47.3774C10.4622 47.2046 10.5179 47.0022 10.5202 46.7702C10.5179 46.5429 10.4634 46.344 10.3569 46.1736C10.2527 46.0031 10.1071 45.8717 9.9201 45.7794C9.73307 45.6847 9.51645 45.6374 9.27024 45.6374C9.01929 45.6374 8.79912 45.6847 8.60973 45.7794C8.4227 45.8717 8.27711 46.0031 8.17294 46.1736C8.06877 46.344 8.01787 46.5429 8.02024 46.7702C8.01787 47.0022 8.06996 47.2046 8.17649 47.3774C8.28303 47.5502 8.42981 47.6852 8.61683 47.7822C8.80623 47.8793 9.02403 47.9278 9.27024 47.9278ZM16.6632 52.2318C16.1021 52.2295 15.6227 52.0815 15.225 51.7879C14.8272 51.4944 14.523 51.067 14.3123 50.506C14.1016 49.9449 13.9963 49.269 13.9963 48.4783C13.9963 47.6899 14.1016 47.0164 14.3123 46.4577C14.5254 45.899 14.8308 45.4728 15.2285 45.1793C15.6286 44.8857 16.1068 44.7389 16.6632 44.7389C17.2195 44.7389 17.6966 44.8869 18.0943 45.1828C18.492 45.4764 18.7962 45.9025 19.0069 46.4612C19.22 47.0176 19.3265 47.6899 19.3265 48.4783C19.3265 49.2714 19.2212 49.9484 19.0105 50.5095C18.7998 51.0682 18.4956 51.4956 18.0978 51.7915C17.7001 52.085 17.2219 52.2318 16.6632 52.2318ZM16.6632 51.2837C17.1556 51.2837 17.5403 51.0434 17.8173 50.5628C18.0967 50.0822 18.2363 49.3874 18.2363 48.4783C18.2363 47.8746 18.1724 47.3644 18.0446 46.9477C17.9191 46.5287 17.738 46.2115 17.5012 45.996C17.2669 45.7782 16.9875 45.6693 16.6632 45.6693C16.1731 45.6693 15.7884 45.9108 15.5091 46.3938C15.2297 46.8767 15.0888 47.5715 15.0865 48.4783C15.0865 49.0843 15.1492 49.5969 15.2747 50.0159C15.4025 50.4326 15.5836 50.7486 15.818 50.9641C16.0524 51.1771 16.3341 51.2837 16.6632 51.2837Z" fill="#949494"/>
<path d="M37 48.1111H25" stroke="#4A5568"/>
<path d="M7.39968 72.6667L10.5744 66.3883V66.335H6.90252V65.394H11.7108V66.367L8.5467 72.6667H7.39968ZM16.3214 72.7874C15.7603 72.7851 15.2809 72.6371 14.8832 72.3435C14.4854 72.05 14.1812 71.6227 13.9705 71.0616C13.7598 70.5005 13.6545 69.8246 13.6545 69.0339C13.6545 68.2455 13.7598 67.572 13.9705 67.0133C14.1836 66.4546 14.489 66.0284 14.8867 65.7349C15.2868 65.4413 15.765 65.2945 16.3214 65.2945C16.8777 65.2945 17.3548 65.4425 17.7525 65.7384C18.1502 66.032 18.4544 66.4581 18.6651 67.0168C18.8782 67.5732 18.9847 68.2455 18.9847 69.0339C18.9847 69.827 18.8794 70.504 18.6687 71.0651C18.458 71.6238 18.1538 72.0512 17.756 72.3471C17.3583 72.6406 16.8801 72.7874 16.3214 72.7874ZM16.3214 71.8393C16.8138 71.8393 17.1985 71.599 17.4755 71.1184C17.7549 70.6378 17.8945 69.943 17.8945 69.0339C17.8945 68.4302 17.8306 67.92 17.7028 67.5033C17.5773 67.0843 17.3962 66.7671 17.1594 66.5516C16.9251 66.3338 16.6457 66.2249 16.3214 66.2249C15.8313 66.2249 15.4466 66.4664 15.1673 66.9494C14.8879 67.4323 14.747 68.1272 14.7447 69.0339C14.7447 69.6399 14.8074 70.1525 14.9329 70.5715C15.0607 70.9882 15.2418 71.3042 15.4762 71.5197C15.7106 71.7327 15.9923 71.8393 16.3214 71.8393Z" fill="#949494"/>
<path d="M37 68.6667H25" stroke="#4A5568"/>
<path d="M9.33239 93.3217C9.00805 93.3169 8.68845 93.2577 8.37358 93.1441C8.06108 93.0305 7.77699 92.8411 7.52131 92.5759C7.26563 92.3108 7.06084 91.9545 6.90696 91.507C6.75545 91.0596 6.67969 90.5009 6.67969 89.8309C6.67969 89.1964 6.74242 88.633 6.8679 88.1406C6.99574 87.6481 7.17921 87.2326 7.41832 86.8941C7.65743 86.5532 7.94626 86.294 8.2848 86.1164C8.62334 85.9388 9.00331 85.8501 9.42472 85.8501C9.85795 85.8501 10.2427 85.9353 10.5788 86.1058C10.915 86.2762 11.1873 86.5118 11.3956 86.8124C11.6063 87.1131 11.7401 87.4552 11.7969 87.8387H10.7138C10.6404 87.5357 10.4948 87.2883 10.277 87.0965C10.0592 86.9048 9.77509 86.8089 9.42472 86.8089C8.89205 86.8089 8.47656 87.0409 8.17827 87.5049C7.88234 87.9689 7.73319 88.614 7.73082 89.4403H7.78409C7.90956 89.2343 8.06345 89.0591 8.24574 88.9147C8.4304 88.7679 8.63636 88.6555 8.86364 88.5773C9.09328 88.4969 9.33475 88.4566 9.58807 88.4566C10.0095 88.4566 10.3906 88.5596 10.7315 88.7656C11.0748 88.9692 11.3482 89.2509 11.5518 89.6107C11.7554 89.9706 11.8572 90.3825 11.8572 90.8465C11.8572 91.3105 11.7519 91.7308 11.5412 92.1072C11.3329 92.4836 11.0393 92.7819 10.6605 93.0021C10.2817 93.2199 9.83902 93.3264 9.33239 93.3217ZM9.32884 92.3984C9.60819 92.3984 9.85795 92.3297 10.0781 92.1924C10.2983 92.0551 10.4723 91.8704 10.6001 91.6384C10.728 91.4064 10.7919 91.1472 10.7919 90.8607C10.7919 90.5814 10.7292 90.3269 10.6037 90.0972C10.4806 89.8676 10.3101 89.6853 10.0923 89.5504C9.87689 89.4154 9.63068 89.3479 9.35369 89.3479C9.14299 89.3479 8.94768 89.3882 8.76776 89.4687C8.5902 89.5492 8.43395 89.6604 8.29901 89.8025C8.16406 89.9445 8.05753 90.1079 7.9794 90.2925C7.90365 90.4748 7.86577 90.6678 7.86577 90.8714C7.86577 91.1436 7.9285 91.3958 8.05398 91.6278C8.18182 91.8598 8.35582 92.0468 8.57599 92.1888C8.79853 92.3285 9.04948 92.3984 9.32884 92.3984ZM16.6827 93.343C16.1216 93.3406 15.6422 93.1926 15.2445 92.8991C14.8468 92.6055 14.5426 92.1782 14.3319 91.6171C14.1212 91.056 14.0158 90.3801 14.0158 89.5894C14.0158 88.8011 14.1212 88.1275 14.3319 87.5688C14.5449 87.0101 14.8503 86.584 15.248 86.2904C15.6481 85.9969 16.1264 85.8501 16.6827 85.8501C17.2391 85.8501 17.7161 85.998 18.1138 86.294C18.5115 86.5875 18.8158 87.0137 19.0265 87.5724C19.2395 88.1287 19.3461 88.8011 19.3461 89.5894C19.3461 90.3825 19.2407 91.0596 19.03 91.6207C18.8193 92.1794 18.5151 92.6067 18.1174 92.9026C17.7196 93.1962 17.2414 93.343 16.6827 93.343ZM16.6827 92.3948C17.1751 92.3948 17.5598 92.1545 17.8368 91.6739C18.1162 91.1933 18.2559 90.4985 18.2559 89.5894C18.2559 88.9857 18.1919 88.4755 18.0641 88.0589C17.9386 87.6398 17.7575 87.3226 17.5208 87.1072C17.2864 86.8894 17.007 86.7805 16.6827 86.7805C16.1926 86.7805 15.8079 87.0219 15.5286 87.5049C15.2492 87.9879 15.1084 88.6827 15.106 89.5894C15.106 90.1955 15.1687 90.708 15.2942 91.1271C15.4221 91.5437 15.6032 91.8598 15.8375 92.0752C16.0719 92.2883 16.3536 92.3948 16.6827 92.3948Z" fill="#949494"/>
<path d="M37 89.2222H25" stroke="#4A5568"/>
<path d="M9.27202 113.877C8.82694 113.877 8.42685 113.792 8.07173 113.622C7.71899 113.449 7.43726 113.212 7.22656 112.911C7.01586 112.611 6.90341 112.267 6.8892 111.881H7.95455C7.98059 112.194 8.11908 112.451 8.37003 112.652C8.62098 112.853 8.92164 112.954 9.27202 112.954C9.55137 112.954 9.79877 112.89 10.0142 112.762C10.232 112.632 10.4025 112.453 10.5256 112.226C10.651 111.999 10.7138 111.739 10.7138 111.448C10.7138 111.152 10.6499 110.888 10.522 110.656C10.3942 110.424 10.2178 110.242 9.9929 110.109C9.77036 109.977 9.51468 109.909 9.22585 109.907C9.00568 109.907 8.78433 109.945 8.56179 110.021C8.33925 110.096 8.15933 110.196 8.02202 110.319L7.01705 110.17L7.42543 106.505H11.424V107.446H8.33807L8.10724 109.481H8.14986C8.2919 109.344 8.48011 109.229 8.71449 109.136C8.95123 109.044 9.20455 108.998 9.47443 108.998C9.91714 108.998 10.3113 109.103 10.657 109.314C11.005 109.525 11.2784 109.812 11.4773 110.177C11.6785 110.539 11.7779 110.956 11.7756 111.427C11.7779 111.898 11.6714 112.318 11.456 112.688C11.2429 113.057 10.947 113.348 10.5682 113.561C10.1918 113.772 9.75971 113.877 9.27202 113.877ZM16.6046 113.899C16.0435 113.896 15.5641 113.748 15.1664 113.455C14.7686 113.161 14.4644 112.734 14.2537 112.173C14.043 111.612 13.9377 110.936 13.9377 110.145C13.9377 109.357 14.043 108.683 14.2537 108.124C14.4668 107.566 14.7722 107.14 15.1699 106.846C15.57 106.552 16.0482 106.406 16.6046 106.406C17.1609 106.406 17.638 106.554 18.0357 106.85C18.4334 107.143 18.7376 107.569 18.9483 108.128C19.1614 108.684 19.2679 109.357 19.2679 110.145C19.2679 110.938 19.1626 111.615 18.9519 112.176C18.7412 112.735 18.437 113.162 18.0392 113.458C17.6415 113.752 17.1633 113.899 16.6046 113.899ZM16.6046 112.95C17.097 112.95 17.4817 112.71 17.7587 112.229C18.0381 111.749 18.1777 111.054 18.1777 110.145C18.1777 109.541 18.1138 109.031 17.986 108.614C17.8605 108.195 17.6794 107.878 17.4426 107.663C17.2083 107.445 16.9289 107.336 16.6046 107.336C16.1145 107.336 15.7298 107.577 15.4505 108.06C15.1711 108.543 15.0302 109.238 15.0279 110.145C15.0279 110.751 15.0906 111.264 15.2161 111.683C15.3439 112.099 15.525 112.415 15.7594 112.631C15.9938 112.844 16.2755 112.95 16.6046 112.95Z" fill="#949494"/>
<path d="M37 109.778H25" stroke="#4A5568"/>
<path d="M6.54785 132.913V132.025L9.69061 127.061H10.3902V128.367H9.94629L7.69842 131.926V131.982H12.0059V132.913H6.54785ZM9.996 134.333V132.643L10.0031 132.238V127.061H11.0436V134.333H9.996ZM16.7755 134.454C16.2144 134.452 15.735 134.304 15.3373 134.01C14.9395 133.717 14.6353 133.289 14.4246 132.728C14.2139 132.167 14.1086 131.491 14.1086 130.701C14.1086 129.912 14.2139 129.239 14.4246 128.68C14.6377 128.121 14.9431 127.695 15.3408 127.401C15.7409 127.108 16.2191 126.961 16.7755 126.961C17.3318 126.961 17.8089 127.109 18.2066 127.405C18.6043 127.699 18.9085 128.125 19.1192 128.683C19.3323 129.24 19.4388 129.912 19.4388 130.701C19.4388 131.494 19.3335 132.171 19.1228 132.732C18.9121 133.29 18.6079 133.718 18.2101 134.014C17.8124 134.307 17.3342 134.454 16.7755 134.454ZM16.7755 133.506C17.2679 133.506 17.6526 133.266 17.9296 132.785C18.209 132.304 18.3486 131.61 18.3486 130.701C18.3486 130.097 18.2847 129.587 18.1569 129.17C18.0314 128.751 17.8503 128.434 17.6135 128.218C17.3792 128 17.0998 127.892 16.7755 127.892C16.2854 127.892 15.9007 128.133 15.6214 128.616C15.342 129.099 15.2011 129.794 15.1988 130.701C15.1988 131.307 15.2615 131.819 15.387 132.238C15.5148 132.655 15.6959 132.971 15.9303 133.186C16.1647 133.399 16.4464 133.506 16.7755 133.506Z" fill="#949494"/>
<path d="M37 130.333H25" stroke="#4A5568"/>
<path d="M9.28134 154.988C8.79365 154.988 8.35804 154.904 7.97452 154.736C7.59337 154.568 7.29152 154.335 7.06898 154.037C6.84881 153.736 6.73044 153.388 6.71387 152.993H7.82892C7.84313 153.208 7.91534 153.395 8.04554 153.554C8.17812 153.71 8.35094 153.831 8.56401 153.916C8.77708 154.001 9.01382 154.044 9.27424 154.044C9.56069 154.044 9.81401 153.994 10.0342 153.895C10.2567 153.795 10.4307 153.657 10.5562 153.479C10.6817 153.299 10.7444 153.092 10.7444 152.858C10.7444 152.614 10.6817 152.4 10.5562 152.215C10.4331 152.028 10.252 151.881 10.0129 151.775C9.77613 151.668 9.48967 151.615 9.1535 151.615H8.53915V150.72H9.1535C9.42338 150.72 9.66013 150.671 9.86373 150.574C10.0697 150.477 10.2307 150.342 10.3467 150.169C10.4627 149.994 10.5207 149.789 10.5207 149.555C10.5207 149.33 10.4698 149.135 10.368 148.969C10.2686 148.801 10.1265 148.67 9.94185 148.575C9.75956 148.48 9.54412 148.433 9.29554 148.433C9.0588 148.433 8.83745 148.477 8.63148 148.564C8.42788 148.65 8.26216 148.773 8.13432 148.934C8.00648 149.092 7.93783 149.283 7.92836 149.505H6.86657C6.8784 149.112 6.99441 148.767 7.21458 148.468C7.43712 148.17 7.73068 147.937 8.09526 147.769C8.45984 147.601 8.86467 147.517 9.30975 147.517C9.77613 147.517 10.1786 147.608 10.5171 147.79C10.858 147.97 11.1208 148.21 11.3055 148.511C11.4925 148.812 11.5848 149.141 11.5825 149.498C11.5848 149.905 11.4712 150.251 11.2416 150.535C11.0143 150.819 10.7113 151.01 10.3325 151.107V151.164C10.8154 151.237 11.1895 151.429 11.4546 151.739C11.7222 152.049 11.8547 152.434 11.8524 152.893C11.8547 153.293 11.7435 153.652 11.5186 153.969C11.296 154.286 10.9918 154.536 10.6059 154.718C10.22 154.898 9.7785 154.988 9.28134 154.988ZM16.7267 155.01C16.1656 155.007 15.6862 154.859 15.2884 154.566C14.8907 154.272 14.5865 153.845 14.3758 153.284C14.1651 152.723 14.0597 152.047 14.0597 151.256C14.0597 150.468 14.1651 149.794 14.3758 149.236C14.5889 148.677 14.8943 148.251 15.292 147.957C15.6921 147.664 16.1703 147.517 16.7267 147.517C17.283 147.517 17.76 147.665 18.1578 147.961C18.5555 148.254 18.8597 148.68 19.0704 149.239C19.2835 149.795 19.39 150.468 19.39 151.256C19.39 152.049 19.2847 152.726 19.074 153.287C18.8633 153.846 18.559 154.273 18.1613 154.569C17.7636 154.863 17.2854 155.01 16.7267 155.01ZM16.7267 154.062C17.2191 154.062 17.6038 153.821 17.8808 153.341C18.1601 152.86 18.2998 152.165 18.2998 151.256C18.2998 150.652 18.2359 150.142 18.108 149.726C17.9826 149.307 17.8015 148.989 17.5647 148.774C17.3303 148.556 17.051 148.447 16.7267 148.447C16.2366 148.447 15.8519 148.689 15.5725 149.172C15.2932 149.655 15.1523 150.349 15.1499 151.256C15.1499 151.862 15.2127 152.375 15.3382 152.794C15.466 153.21 15.6471 153.526 15.8815 153.742C16.1159 153.955 16.3976 154.062 16.7267 154.062Z" fill="#949494"/>
<path d="M37 150.889H25" stroke="#4A5568"/>
<path d="M6.90563 175.444V174.649L9.36657 172.099C9.62935 171.822 9.84597 171.58 10.0164 171.371C10.1892 171.161 10.3183 170.961 10.4035 170.771C10.4887 170.582 10.5313 170.381 10.5313 170.167C10.5313 169.926 10.4745 169.718 10.3609 169.542C10.2472 169.365 10.0922 169.229 9.89569 169.134C9.69919 169.037 9.47784 168.988 9.23162 168.988C8.97121 168.988 8.74393 169.042 8.5498 169.148C8.35568 169.255 8.20653 169.405 8.10236 169.599C7.99819 169.793 7.94611 170.021 7.94611 170.281H6.89853C6.89853 169.838 7.00033 169.451 7.20392 169.12C7.40752 168.788 7.68688 168.532 8.04199 168.349C8.39711 168.165 8.80075 168.072 9.25293 168.072C9.70984 168.072 10.1123 168.163 10.4603 168.346C10.8107 168.526 11.0841 168.772 11.2806 169.084C11.4771 169.395 11.5754 169.745 11.5754 170.136C11.5754 170.405 11.5245 170.669 11.4227 170.927C11.3232 171.185 11.1492 171.473 10.9007 171.79C10.6521 172.105 10.3064 172.488 9.86373 172.937L8.41841 174.45V174.503H11.6926V175.444H6.90563ZM16.5704 175.565C16.0093 175.563 15.5299 175.415 15.1322 175.121C14.7345 174.828 14.4302 174.4 14.2195 173.839C14.0088 173.278 13.9035 172.602 13.9035 171.812C13.9035 171.023 14.0088 170.35 14.2195 169.791C14.4326 169.232 14.738 168.806 15.1357 168.513C15.5358 168.219 16.0141 168.072 16.5704 168.072C17.1267 168.072 17.6038 168.22 18.0015 168.516C18.3992 168.81 18.7035 169.236 18.9142 169.795C19.1272 170.351 19.2338 171.023 19.2338 171.812C19.2338 172.605 19.1284 173.282 18.9177 173.843C18.707 174.402 18.4028 174.829 18.0051 175.125C17.6073 175.418 17.1291 175.565 16.5704 175.565ZM16.5704 174.617C17.0628 174.617 17.4475 174.377 17.7245 173.896C18.0039 173.416 18.1436 172.721 18.1436 171.812C18.1436 171.208 18.0796 170.698 17.9518 170.281C17.8263 169.862 17.6452 169.545 17.4085 169.329C17.1741 169.112 16.8947 169.003 16.5704 169.003C16.0803 169.003 15.6956 169.244 15.4163 169.727C15.1369 170.21 14.9961 170.905 14.9937 171.812C14.9937 172.418 15.0564 172.93 15.1819 173.349C15.3097 173.766 15.4909 174.082 15.7252 174.297C15.9596 174.511 16.2413 174.617 16.5704 174.617Z" fill="#949494"/>
<path d="M37 171.444H25" stroke="#4A5568"/>
<path d="M10.868 188.727V196H9.76713V189.828H9.72452L7.98446 190.964V189.913L9.79909 188.727H10.868ZM16.3673 196.121C15.8062 196.118 15.3268 195.97 14.9291 195.677C14.5313 195.383 14.2271 194.956 14.0164 194.395C13.8057 193.834 13.7004 193.158 13.7004 192.367C13.7004 191.579 13.8057 190.905 14.0164 190.347C14.2295 189.788 14.5349 189.362 14.9326 189.068C15.3327 188.775 15.8109 188.628 16.3673 188.628C16.9236 188.628 17.4007 188.776 17.7984 189.072C18.1961 189.365 18.5003 189.791 18.711 190.35C18.9241 190.906 19.0306 191.579 19.0306 192.367C19.0306 193.16 18.9253 193.837 18.7146 194.398C18.5039 194.957 18.1997 195.384 17.8019 195.68C17.4042 195.974 16.926 196.121 16.3673 196.121ZM16.3673 195.173C16.8597 195.173 17.2444 194.932 17.5214 194.452C17.8008 193.971 17.9404 193.276 17.9404 192.367C17.9404 191.763 17.8765 191.253 17.7487 190.837C17.6232 190.418 17.4421 190.1 17.2053 189.885C16.971 189.667 16.6916 189.558 16.3673 189.558C15.8772 189.558 15.4925 189.8 15.2132 190.283C14.9338 190.766 14.7929 191.46 14.7906 192.367C14.7906 192.973 14.8533 193.486 14.9788 193.905C15.1066 194.321 15.2877 194.638 15.5221 194.853C15.7565 195.066 16.0382 195.173 16.3673 195.173Z" fill="#949494"/>
<path d="M37 192H25" stroke="#4A5568"/>
<path d="M37 1V208" stroke="#4A5568"/>
<path d="M37 158.766L106.706 155.568C108.23 155.498 109.758 155.603 111.258 155.88L170.891 166.905C177.236 168.078 183.757 166.118 188.403 161.641L213.751 137.221C215.89 135.16 218.461 133.601 221.278 132.658L242.141 125.674C248.868 123.422 256.285 124.902 261.632 129.563L308.564 170.472C317.403 178.177 330.943 176.66 337.858 167.19L389.226 96.8419C393.942 90.3825 402.054 87.3542 409.849 89.1425L456.164 99.7663C463.953 101.553 472.058 98.5315 476.776 92.0822L535.344 12.0335C538.92 7.14577 544.519 4.14173 550.568 3.86417L613 1" stroke="#CE2A96"/>
<path d="M37 171.717L102.512 166.063C106.728 165.699 110.951 166.682 114.574 168.87L163.196 198.244C172.914 204.115 185.564 200.728 191.049 190.788L216.027 145.518C216.674 144.346 217.202 143.111 217.602 141.833L239.813 70.9075C244.951 54.502 267.024 51.7941 275.974 66.4713L306.299 116.197C314.46 129.578 334.142 128.799 341.219 114.815L383.807 30.6658C390.157 18.1194 407.129 15.8701 416.528 26.3294L456.557 70.8764C463.569 78.6792 475.417 79.7387 483.702 73.3038L536.336 32.4219C539.38 30.057 543.043 28.6225 546.884 28.291L613 22.585" stroke="#6C60FF"/>
<path d="M37 209H613" stroke="#4A5568"/>
<path d="M48 209V219" stroke="#4A5568"/>
<path d="M40.6306 226.727H41.7243V231.884C41.7243 232.35 41.632 232.749 41.4474 233.08C41.2651 233.412 41.0082 233.665 40.6768 233.84C40.3453 234.013 39.9571 234.099 39.512 234.099C39.1024 234.099 38.7343 234.025 38.4076 233.876C38.0832 233.727 37.8264 233.51 37.637 233.226C37.45 232.939 37.3564 232.591 37.3564 232.182H38.4466C38.4466 232.383 38.4928 232.557 38.5851 232.704C38.6798 232.851 38.8089 232.965 38.9722 233.048C39.1379 233.129 39.3273 233.169 39.5404 233.169C39.7724 233.169 39.9689 233.121 40.1299 233.023C40.2932 232.924 40.4175 232.778 40.5028 232.587C40.588 232.395 40.6306 232.161 40.6306 231.884V226.727ZM44.9358 234H43.771L46.3882 226.727H47.656L50.2732 234H49.1084L47.0523 228.048H46.9955L44.9358 234ZM45.1311 231.152H48.9095V232.075H45.1311V231.152ZM58.1934 226.727V234H57.1849L53.4882 228.666H53.4207V234H52.3234V226.727H53.339L57.0393 232.068H57.1068V226.727H58.1934Z" fill="#949494"/>
<path d="M96.8636 209V219" stroke="#4A5568"/>
<path d="M87.4488 234V226.727H91.9587V227.672H88.5461V229.888H91.6356V230.829H88.5461V234H87.4488ZM94.3081 234V226.727H98.8678V227.672H95.4054V229.888H98.6299V230.829H95.4054V233.055H98.9104V234H94.3081ZM101.334 234V226.727H103.997C104.513 226.727 104.94 226.812 105.279 226.983C105.617 227.151 105.871 227.379 106.039 227.668C106.207 227.955 106.291 228.278 106.291 228.638C106.291 228.941 106.235 229.196 106.124 229.405C106.013 229.611 105.864 229.777 105.677 229.902C105.492 230.025 105.288 230.115 105.066 230.172V230.243C105.307 230.255 105.543 230.333 105.772 230.477C106.004 230.619 106.196 230.822 106.348 231.085C106.499 231.347 106.575 231.667 106.575 232.043C106.575 232.415 106.487 232.749 106.312 233.045C106.139 233.338 105.872 233.571 105.51 233.744C105.147 233.915 104.685 234 104.121 234H101.334ZM102.431 233.059H104.015C104.54 233.059 104.917 232.957 105.144 232.754C105.371 232.55 105.485 232.295 105.485 231.99C105.485 231.76 105.427 231.55 105.311 231.358C105.195 231.166 105.029 231.013 104.814 230.9C104.601 230.786 104.347 230.729 104.054 230.729H102.431V233.059ZM102.431 229.874H103.901C104.147 229.874 104.369 229.826 104.565 229.732C104.764 229.637 104.921 229.504 105.037 229.334C105.156 229.161 105.215 228.957 105.215 228.723C105.215 228.422 105.11 228.17 104.899 227.967C104.688 227.763 104.365 227.661 103.929 227.661H102.431V229.874Z" fill="#949494"/>
<path d="M147.227 209V219" stroke="#4A5568"/>
<path d="M135.815 226.727H137.147L139.462 232.381H139.548L141.863 226.727H143.195V234H142.151V228.737H142.083L139.938 233.989H139.072L136.927 228.734H136.859V234H135.815V226.727ZM146.404 234H145.24L147.857 226.727H149.124L151.742 234H150.577L148.521 228.048H148.464L146.404 234ZM146.6 231.152H150.378V232.075H146.6V231.152ZM153.792 234V226.727H156.384C156.948 226.727 157.415 226.824 157.787 227.018C158.161 227.213 158.44 227.481 158.625 227.825C158.81 228.165 158.902 228.56 158.902 229.007C158.902 229.452 158.808 229.844 158.621 230.183C158.437 230.519 158.157 230.78 157.783 230.967C157.412 231.154 156.944 231.248 156.381 231.248H154.417V230.303H156.281C156.636 230.303 156.925 230.252 157.148 230.151C157.373 230.049 157.537 229.901 157.641 229.707C157.746 229.513 157.798 229.279 157.798 229.007C157.798 228.732 157.744 228.495 157.638 228.293C157.534 228.092 157.369 227.938 157.144 227.832C156.922 227.723 156.629 227.668 156.267 227.668H154.889V234H153.792ZM157.382 230.719L159.179 234H157.929L156.168 230.719H157.382Z" fill="#949494"/>
<path d="M198.091 209V219" stroke="#4A5568"/>
<path d="M188.582 234H187.418L190.035 226.727H191.303L193.92 234H192.755L190.699 228.048H190.642L188.582 234ZM188.778 231.152H192.556V232.075H188.778V231.152ZM195.97 234V226.727H198.562C199.128 226.727 199.597 226.83 199.969 227.036C200.34 227.242 200.618 227.524 200.803 227.881C200.988 228.237 201.08 228.637 201.08 229.082C201.08 229.529 200.987 229.932 200.8 230.289C200.615 230.644 200.336 230.926 199.961 231.134C199.59 231.34 199.122 231.443 198.559 231.443H196.776V230.513H198.459C198.817 230.513 199.107 230.451 199.329 230.328C199.552 230.203 199.715 230.032 199.819 229.817C199.924 229.601 199.976 229.356 199.976 229.082C199.976 228.807 199.924 228.563 199.819 228.35C199.715 228.137 199.551 227.97 199.326 227.849C199.103 227.729 198.81 227.668 198.445 227.668H197.067V234H195.97ZM203.366 234V226.727H205.959C206.522 226.727 206.99 226.824 207.362 227.018C207.736 227.213 208.015 227.481 208.2 227.825C208.384 228.165 208.477 228.56 208.477 229.007C208.477 229.452 208.383 229.844 208.196 230.183C208.011 230.519 207.732 230.78 207.358 230.967C206.986 231.154 206.519 231.248 205.955 231.248H203.991V230.303H205.856C206.211 230.303 206.5 230.252 206.722 230.151C206.947 230.049 207.112 229.901 207.216 229.707C207.32 229.513 207.372 229.279 207.372 229.007C207.372 228.732 207.319 228.495 207.212 228.293C207.108 228.092 206.944 227.938 206.719 227.832C206.496 227.723 206.204 227.668 205.842 227.668H204.464V234H203.366ZM206.957 230.719L208.754 234H207.504L205.742 230.719H206.957Z" fill="#949494"/>
<path d="M248.955 209V219" stroke="#4A5568"/>
<path d="M237.714 226.727H239.045L241.361 232.381H241.446L243.761 226.727H245.093V234H244.049V228.737H243.981L241.836 233.989H240.97L238.825 228.734H238.758V234H237.714V226.727ZM248.302 234H247.138L249.755 226.727H251.023L253.64 234H252.475L250.419 228.048H250.362L248.302 234ZM248.498 231.152H252.276V232.075H248.498V231.152ZM254.387 226.727H255.633L257.533 230.033H257.611L259.511 226.727H260.758L258.119 231.145V234H257.025V231.145L254.387 226.727Z" fill="#949494"/>
<path d="M300.318 209V219" stroke="#4A5568"/>
<path d="M292.763 226.727H293.857V231.884C293.857 232.35 293.765 232.749 293.58 233.08C293.398 233.412 293.141 233.665 292.809 233.84C292.478 234.013 292.09 234.099 291.645 234.099C291.235 234.099 290.867 234.025 290.54 233.876C290.216 233.727 289.959 233.51 289.77 233.226C289.583 232.939 289.489 232.591 289.489 232.182H290.579C290.579 232.383 290.625 232.557 290.718 232.704C290.812 232.851 290.941 232.965 291.105 233.048C291.271 233.129 291.46 233.169 291.673 233.169C291.905 233.169 292.102 233.121 292.263 233.023C292.426 232.924 292.55 232.778 292.635 232.587C292.721 232.395 292.763 232.161 292.763 231.884V226.727ZM301.131 226.727H302.232V231.511C302.232 232.02 302.112 232.471 301.873 232.864C301.634 233.254 301.298 233.562 300.865 233.787C300.431 234.009 299.924 234.121 299.341 234.121C298.761 234.121 298.255 234.009 297.821 233.787C297.388 233.562 297.052 233.254 296.813 232.864C296.574 232.471 296.454 232.02 296.454 231.511V226.727H297.551V231.422C297.551 231.751 297.624 232.043 297.768 232.299C297.915 232.555 298.122 232.756 298.389 232.903C298.657 233.047 298.974 233.119 299.341 233.119C299.71 233.119 300.029 233.047 300.296 232.903C300.566 232.756 300.772 232.555 300.914 232.299C301.059 232.043 301.131 231.751 301.131 231.422V226.727ZM310.697 226.727V234H309.689L305.992 228.666H305.924V234H304.827V226.727H305.843L309.543 232.068H309.611V226.727H310.697Z" fill="#949494"/>
<path d="M349.682 209V219" stroke="#4A5568"/>
<path d="M343.04 226.727H344.134V231.884C344.134 232.35 344.041 232.749 343.857 233.08C343.674 233.412 343.418 233.665 343.086 233.84C342.755 234.013 342.366 234.099 341.921 234.099C341.512 234.099 341.144 234.025 340.817 233.876C340.493 233.727 340.236 233.51 340.046 233.226C339.859 232.939 339.766 232.591 339.766 232.182H340.856C340.856 232.383 340.902 232.557 340.995 232.704C341.089 232.851 341.218 232.965 341.382 233.048C341.547 233.129 341.737 233.169 341.95 233.169C342.182 233.169 342.378 233.121 342.539 233.023C342.703 232.924 342.827 232.778 342.912 232.587C342.997 232.395 343.04 232.161 343.04 231.884V226.727ZM351.408 226.727H352.509V231.511C352.509 232.02 352.389 232.471 352.15 232.864C351.911 233.254 351.575 233.562 351.141 233.787C350.708 234.009 350.2 234.121 349.618 234.121C349.038 234.121 348.531 234.009 348.098 233.787C347.665 233.562 347.329 233.254 347.089 232.864C346.85 232.471 346.731 232.02 346.731 231.511V226.727H347.828V231.422C347.828 231.751 347.9 232.043 348.045 232.299C348.192 232.555 348.399 232.756 348.666 232.903C348.934 233.047 349.251 233.119 349.618 233.119C349.987 233.119 350.306 233.047 350.573 232.903C350.843 232.756 351.049 232.555 351.191 232.299C351.335 232.043 351.408 231.751 351.408 231.422V226.727ZM355.104 234V226.727H356.201V233.055H359.497V234H355.104Z" fill="#949494"/>
<path d="M399.545 209V219" stroke="#4A5568"/>
<path d="M389.026 234H387.861L390.479 226.727H391.746L394.364 234H393.199L391.143 228.048H391.086L389.026 234ZM389.222 231.152H393V232.075H389.222V231.152ZM401.091 226.727H402.192V231.511C402.192 232.02 402.072 232.471 401.833 232.864C401.594 233.254 401.258 233.562 400.824 233.787C400.391 234.009 399.883 234.121 399.301 234.121C398.721 234.121 398.214 234.009 397.781 233.787C397.348 233.562 397.012 233.254 396.772 232.864C396.533 232.471 396.414 232.02 396.414 231.511V226.727H397.511V231.422C397.511 231.751 397.583 232.043 397.728 232.299C397.875 232.555 398.082 232.756 398.349 232.903C398.617 233.047 398.934 233.119 399.301 233.119C399.67 233.119 399.989 233.047 400.256 232.903C400.526 232.756 400.732 232.555 400.874 232.299C401.018 232.043 401.091 231.751 401.091 231.422V226.727ZM409.709 229.025C409.64 228.809 409.548 228.616 409.432 228.446C409.318 228.273 409.182 228.126 409.023 228.006C408.865 227.883 408.684 227.789 408.48 227.725C408.279 227.661 408.057 227.629 407.816 227.629C407.406 227.629 407.037 227.735 406.708 227.945C406.379 228.156 406.119 228.465 405.927 228.872C405.737 229.277 405.643 229.773 405.643 230.36C405.643 230.95 405.739 231.448 405.93 231.855C406.122 232.262 406.385 232.571 406.719 232.782C407.052 232.993 407.432 233.098 407.859 233.098C408.254 233.098 408.598 233.018 408.892 232.857C409.188 232.696 409.416 232.468 409.577 232.175C409.741 231.879 409.822 231.531 409.822 231.131L410.106 231.184H408.025V230.278H410.884V231.106C410.884 231.717 410.754 232.247 410.494 232.697C410.235 233.144 409.878 233.49 409.421 233.734C408.967 233.978 408.446 234.099 407.859 234.099C407.2 234.099 406.623 233.948 406.126 233.645C405.631 233.342 405.245 232.912 404.968 232.356C404.691 231.797 404.552 231.134 404.552 230.367C404.552 229.787 404.633 229.266 404.794 228.805C404.955 228.343 405.181 227.951 405.472 227.629C405.766 227.305 406.11 227.058 406.506 226.887C406.903 226.714 407.338 226.628 407.809 226.628C408.202 226.628 408.568 226.686 408.906 226.802C409.247 226.918 409.55 227.082 409.815 227.295C410.083 227.509 410.304 227.762 410.479 228.055C410.655 228.347 410.773 228.67 410.834 229.025H409.709Z" fill="#949494"/>
<path d="M449.409 209V219" stroke="#4A5568"/>
<path d="M443.746 228.638C443.708 228.302 443.552 228.041 443.277 227.857C443.003 227.67 442.657 227.576 442.24 227.576C441.942 227.576 441.684 227.623 441.466 227.718C441.248 227.81 441.079 227.938 440.958 228.102C440.84 228.263 440.781 228.446 440.781 228.652C440.781 228.825 440.821 228.974 440.902 229.099C440.984 229.225 441.092 229.33 441.225 229.415C441.36 229.498 441.504 229.568 441.658 229.625C441.812 229.679 441.96 229.724 442.102 229.76L442.812 229.945C443.044 230.001 443.282 230.078 443.526 230.175C443.77 230.272 443.996 230.4 444.204 230.559C444.412 230.718 444.581 230.914 444.708 231.148C444.839 231.383 444.904 231.663 444.904 231.99C444.904 232.402 444.797 232.768 444.584 233.087C444.373 233.407 444.067 233.659 443.664 233.844C443.264 234.028 442.78 234.121 442.212 234.121C441.667 234.121 441.196 234.034 440.799 233.862C440.401 233.689 440.09 233.444 439.865 233.126C439.64 232.807 439.515 232.428 439.492 231.99H440.593C440.614 232.253 440.699 232.472 440.848 232.647C441 232.82 441.193 232.949 441.427 233.034C441.664 233.117 441.923 233.158 442.205 233.158C442.515 233.158 442.791 233.11 443.032 233.013C443.276 232.913 443.468 232.776 443.608 232.601C443.747 232.423 443.817 232.216 443.817 231.979C443.817 231.764 443.756 231.588 443.632 231.45C443.512 231.313 443.347 231.199 443.139 231.109C442.933 231.019 442.7 230.94 442.439 230.871L441.58 230.637C440.997 230.478 440.536 230.245 440.195 229.938C439.856 229.63 439.687 229.223 439.687 228.716C439.687 228.297 439.801 227.931 440.028 227.619C440.255 227.306 440.563 227.063 440.951 226.891C441.34 226.715 441.778 226.628 442.265 226.628C442.758 226.628 443.192 226.714 443.568 226.887C443.947 227.06 444.246 227.298 444.463 227.601C444.681 227.902 444.795 228.247 444.804 228.638H443.746ZM447.215 234V226.727H451.775V227.672H448.312V229.888H451.537V230.829H448.312V233.055H451.817V234H447.215ZM454.24 234V226.727H456.833C457.398 226.727 457.867 226.83 458.239 227.036C458.611 227.242 458.889 227.524 459.073 227.881C459.258 228.237 459.35 228.637 459.35 229.082C459.35 229.529 459.257 229.932 459.07 230.289C458.885 230.644 458.606 230.926 458.232 231.134C457.86 231.34 457.393 231.443 456.829 231.443H455.046V230.513H456.73C457.087 230.513 457.377 230.451 457.6 230.328C457.822 230.203 457.986 230.032 458.09 229.817C458.194 229.601 458.246 229.356 458.246 229.082C458.246 228.807 458.194 228.563 458.09 228.35C457.986 228.137 457.821 227.97 457.596 227.849C457.374 227.729 457.08 227.668 456.715 227.668H455.338V234H454.24Z" fill="#949494"/>
<path d="M499.273 209V219" stroke="#4A5568"/>
<path d="M494.613 230.364C494.613 231.14 494.471 231.808 494.187 232.366C493.903 232.923 493.513 233.351 493.018 233.652C492.526 233.95 491.966 234.099 491.339 234.099C490.709 234.099 490.147 233.95 489.652 233.652C489.16 233.351 488.771 232.922 488.487 232.363C488.203 231.804 488.061 231.138 488.061 230.364C488.061 229.587 488.203 228.921 488.487 228.364C488.771 227.806 489.16 227.377 489.652 227.079C490.147 226.778 490.709 226.628 491.339 226.628C491.966 226.628 492.526 226.778 493.018 227.079C493.513 227.377 493.903 227.806 494.187 228.364C494.471 228.921 494.613 229.587 494.613 230.364ZM493.526 230.364C493.526 229.772 493.43 229.273 493.239 228.869C493.049 228.461 492.789 228.154 492.457 227.945C492.128 227.735 491.755 227.629 491.339 227.629C490.92 227.629 490.546 227.735 490.217 227.945C489.887 228.154 489.627 228.461 489.435 228.869C489.246 229.273 489.151 229.772 489.151 230.364C489.151 230.955 489.246 231.455 489.435 231.862C489.627 232.267 489.887 232.575 490.217 232.786C490.546 232.994 490.92 233.098 491.339 233.098C491.755 233.098 492.128 232.994 492.457 232.786C492.789 232.575 493.049 232.267 493.239 231.862C493.43 231.455 493.526 230.955 493.526 230.364ZM503.021 229.092H501.913C501.871 228.856 501.792 228.647 501.676 228.467C501.56 228.287 501.418 228.135 501.249 228.009C501.081 227.884 500.893 227.789 500.685 227.725C500.479 227.661 500.26 227.629 500.028 227.629C499.609 227.629 499.234 227.735 498.902 227.945C498.573 228.156 498.313 228.465 498.121 228.872C497.931 229.279 497.837 229.777 497.837 230.364C497.837 230.955 497.931 231.455 498.121 231.862C498.313 232.269 498.574 232.577 498.906 232.786C499.237 232.994 499.61 233.098 500.024 233.098C500.254 233.098 500.472 233.067 500.678 233.006C500.886 232.942 501.074 232.848 501.242 232.725C501.41 232.602 501.552 232.452 501.668 232.274C501.787 232.094 501.868 231.888 501.913 231.656L503.021 231.66C502.962 232.017 502.847 232.346 502.677 232.647C502.509 232.945 502.292 233.203 502.027 233.421C501.764 233.637 501.464 233.804 501.125 233.922C500.787 234.04 500.417 234.099 500.017 234.099C499.387 234.099 498.826 233.95 498.334 233.652C497.842 233.351 497.453 232.922 497.169 232.363C496.887 231.804 496.747 231.138 496.747 230.364C496.747 229.587 496.889 228.921 497.173 228.364C497.457 227.806 497.845 227.377 498.337 227.079C498.83 226.778 499.39 226.628 500.017 226.628C500.403 226.628 500.763 226.683 501.097 226.795C501.433 226.904 501.735 227.065 502.002 227.278C502.27 227.488 502.491 227.746 502.666 228.052C502.842 228.355 502.96 228.702 503.021 229.092ZM504.976 227.672V226.727H510.604V227.672H508.335V234H507.241V227.672H504.976Z" fill="#949494"/>
<path d="M550.636 209V219" stroke="#4A5568"/>
<path d="M545.407 226.727V234H544.398L540.702 228.666H540.634V234H539.537V226.727H540.553L544.253 232.068H544.32V226.727H545.407ZM554.325 230.364C554.325 231.14 554.183 231.808 553.899 232.366C553.615 232.923 553.225 233.351 552.731 233.652C552.238 233.95 551.678 234.099 551.051 234.099C550.421 234.099 549.859 233.95 549.364 233.652C548.872 233.351 548.484 232.922 548.199 232.363C547.915 231.804 547.773 231.138 547.773 230.364C547.773 229.587 547.915 228.921 548.199 228.364C548.484 227.806 548.872 227.377 549.364 227.079C549.859 226.778 550.421 226.628 551.051 226.628C551.678 226.628 552.238 226.778 552.731 227.079C553.225 227.377 553.615 227.806 553.899 228.364C554.183 228.921 554.325 229.587 554.325 230.364ZM553.239 230.364C553.239 229.772 553.143 229.273 552.951 228.869C552.761 228.461 552.501 228.154 552.17 227.945C551.841 227.735 551.468 227.629 551.051 227.629C550.632 227.629 550.258 227.735 549.929 227.945C549.6 228.154 549.339 228.461 549.148 228.869C548.958 229.273 548.864 229.772 548.864 230.364C548.864 230.955 548.958 231.455 549.148 231.862C549.339 232.267 549.6 232.575 549.929 232.786C550.258 232.994 550.632 233.098 551.051 233.098C551.468 233.098 551.841 232.994 552.17 232.786C552.501 232.575 552.761 232.267 552.951 231.862C553.143 231.455 553.239 230.955 553.239 230.364ZM556.968 226.727L558.992 232.651H559.073L561.098 226.727H562.284L559.666 234H558.399L555.781 226.727H556.968Z" fill="#949494"/>
<path d="M601.5 209V219" stroke="#4A5568"/>
<path d="M593.356 234H591.001V226.727H593.43C594.143 226.727 594.755 226.873 595.266 227.164C595.777 227.453 596.169 227.868 596.441 228.411C596.716 228.95 596.853 229.598 596.853 230.353C596.853 231.111 596.715 231.762 596.438 232.306C596.163 232.851 595.766 233.27 595.245 233.563C594.724 233.854 594.094 234 593.356 234ZM592.098 233.041H593.295C593.849 233.041 594.31 232.937 594.677 232.729C595.044 232.518 595.318 232.214 595.5 231.816C595.683 231.416 595.774 230.928 595.774 230.353C595.774 229.782 595.683 229.298 595.5 228.901C595.321 228.503 595.052 228.201 594.694 227.995C594.337 227.789 593.893 227.686 593.363 227.686H592.098V233.041ZM599.218 234V226.727H603.778V227.672H600.315V229.888H603.54V230.829H600.315V233.055H603.82V234H599.218ZM612.284 229.092H611.176C611.133 228.856 611.054 228.647 610.938 228.467C610.822 228.287 610.68 228.135 610.512 228.009C610.344 227.884 610.156 227.789 609.947 227.725C609.741 227.661 609.522 227.629 609.29 227.629C608.871 227.629 608.496 227.735 608.165 227.945C607.835 228.156 607.575 228.465 607.383 228.872C607.194 229.279 607.099 229.777 607.099 230.364C607.099 230.955 607.194 231.455 607.383 231.862C607.575 232.269 607.837 232.577 608.168 232.786C608.499 232.994 608.872 233.098 609.287 233.098C609.516 233.098 609.734 233.067 609.94 233.006C610.148 232.942 610.337 232.848 610.505 232.725C610.673 232.602 610.815 232.452 610.931 232.274C611.049 232.094 611.131 231.888 611.176 231.656L612.284 231.66C612.225 232.017 612.11 232.346 611.939 232.647C611.771 232.945 611.555 233.203 611.29 233.421C611.027 233.637 610.726 233.804 610.388 233.922C610.049 234.04 609.68 234.099 609.28 234.099C608.65 234.099 608.089 233.95 607.596 233.652C607.104 233.351 606.716 232.922 606.432 232.363C606.15 231.804 606.009 231.138 606.009 230.364C606.009 229.587 606.151 228.921 606.435 228.364C606.719 227.806 607.107 227.377 607.6 227.079C608.092 226.778 608.652 226.628 609.28 226.628C609.665 226.628 610.025 226.683 610.359 226.795C610.695 226.904 610.997 227.065 611.265 227.278C611.532 227.488 611.754 227.746 611.929 228.052C612.104 228.355 612.222 228.702 612.284 229.092Z" fill="#949494"/>
</svg>
